<mxfile host="app.diagrams.net" agent="Mozilla/5.0 (Windows NT 10.0; Win64; x64) AppleWebKit/537.36 (KHTML, like Gecko) Chrome/138.0.0.0 Safari/537.36" version="26.1.3">
  <diagram name="Page-1" id="USd6oA-83SaBcVcPraW6">
    <mxGraphModel dx="1434" dy="1838" grid="1" gridSize="10" guides="1" tooltips="1" connect="1" arrows="1" fold="1" page="1" pageScale="1" pageWidth="850" pageHeight="1100" math="0" shadow="0">
      <root>
        <mxCell id="0" />
        <mxCell id="1" parent="0" />
        <mxCell id="RkTa9d2Z5_lZobXTlZD3-83" value="" style="fillColor=#EFF0F3;strokeColor=none;dashed=0;verticalAlign=top;fontStyle=0;fontColor=#232F3D;whiteSpace=wrap;html=1;" vertex="1" parent="1">
          <mxGeometry x="320" y="460" width="1240" height="60" as="geometry" />
        </mxCell>
        <mxCell id="RkTa9d2Z5_lZobXTlZD3-54" style="edgeStyle=orthogonalEdgeStyle;rounded=0;orthogonalLoop=1;jettySize=auto;html=1;" edge="1" parent="1" source="RkTa9d2Z5_lZobXTlZD3-52" target="RkTa9d2Z5_lZobXTlZD3-53">
          <mxGeometry relative="1" as="geometry" />
        </mxCell>
        <mxCell id="RkTa9d2Z5_lZobXTlZD3-85" style="edgeStyle=orthogonalEdgeStyle;rounded=0;orthogonalLoop=1;jettySize=auto;html=1;" edge="1" parent="1" source="RkTa9d2Z5_lZobXTlZD3-52" target="RkTa9d2Z5_lZobXTlZD3-57">
          <mxGeometry relative="1" as="geometry" />
        </mxCell>
        <mxCell id="RkTa9d2Z5_lZobXTlZD3-52" value="" style="fillColor=#EFF0F3;strokeColor=none;dashed=0;verticalAlign=top;fontStyle=0;fontColor=#232F3D;whiteSpace=wrap;html=1;" vertex="1" parent="1">
          <mxGeometry x="835" y="110" width="135" height="190" as="geometry" />
        </mxCell>
        <mxCell id="RkTa9d2Z5_lZobXTlZD3-31" value="" style="fillColor=#EFF0F3;strokeColor=none;dashed=0;verticalAlign=top;fontStyle=0;fontColor=#232F3D;whiteSpace=wrap;html=1;" vertex="1" parent="1">
          <mxGeometry x="320" y="90" width="340" height="240" as="geometry" />
        </mxCell>
        <mxCell id="RkTa9d2Z5_lZobXTlZD3-6" value="" style="fillColor=#EFF0F3;strokeColor=none;dashed=0;verticalAlign=top;fontStyle=0;fontColor=#232F3D;whiteSpace=wrap;html=1;" vertex="1" parent="1">
          <mxGeometry x="154" y="40" width="126" height="260" as="geometry" />
        </mxCell>
        <mxCell id="RkTa9d2Z5_lZobXTlZD3-3" style="edgeStyle=orthogonalEdgeStyle;rounded=0;orthogonalLoop=1;jettySize=auto;html=1;" edge="1" parent="1" source="RkTa9d2Z5_lZobXTlZD3-1" target="RkTa9d2Z5_lZobXTlZD3-2">
          <mxGeometry relative="1" as="geometry" />
        </mxCell>
        <mxCell id="RkTa9d2Z5_lZobXTlZD3-1" value="up-stream app" style="text;html=1;align=center;verticalAlign=middle;whiteSpace=wrap;rounded=0;fillColor=#fff2cc;strokeColor=#d6b656;" vertex="1" parent="1">
          <mxGeometry x="30" y="90" width="60" height="30" as="geometry" />
        </mxCell>
        <mxCell id="RkTa9d2Z5_lZobXTlZD3-8" style="edgeStyle=orthogonalEdgeStyle;rounded=0;orthogonalLoop=1;jettySize=auto;html=1;" edge="1" parent="1" source="RkTa9d2Z5_lZobXTlZD3-2" target="RkTa9d2Z5_lZobXTlZD3-7">
          <mxGeometry relative="1" as="geometry">
            <Array as="points">
              <mxPoint x="300" y="105" />
              <mxPoint x="300" y="51" />
            </Array>
          </mxGeometry>
        </mxCell>
        <mxCell id="RkTa9d2Z5_lZobXTlZD3-10" style="edgeStyle=orthogonalEdgeStyle;rounded=0;orthogonalLoop=1;jettySize=auto;html=1;" edge="1" parent="1" source="RkTa9d2Z5_lZobXTlZD3-2" target="RkTa9d2Z5_lZobXTlZD3-9">
          <mxGeometry relative="1" as="geometry" />
        </mxCell>
        <mxCell id="RkTa9d2Z5_lZobXTlZD3-2" value="" style="sketch=0;points=[[0,0,0],[0.25,0,0],[0.5,0,0],[0.75,0,0],[1,0,0],[0,1,0],[0.25,1,0],[0.5,1,0],[0.75,1,0],[1,1,0],[0,0.25,0],[0,0.5,0],[0,0.75,0],[1,0.25,0],[1,0.5,0],[1,0.75,0]];outlineConnect=0;fontColor=#232F3E;fillColor=#E7157B;strokeColor=#ffffff;dashed=0;verticalLabelPosition=bottom;verticalAlign=top;align=center;html=1;fontSize=12;fontStyle=0;aspect=fixed;shape=mxgraph.aws4.resourceIcon;resIcon=mxgraph.aws4.sqs;" vertex="1" parent="1">
          <mxGeometry x="180" y="66" width="78" height="78" as="geometry" />
        </mxCell>
        <mxCell id="RkTa9d2Z5_lZobXTlZD3-4" value="" style="sketch=0;points=[[0,0,0],[0.25,0,0],[0.5,0,0],[0.75,0,0],[1,0,0],[0,1,0],[0.25,1,0],[0.5,1,0],[0.75,1,0],[1,1,0],[0,0.25,0],[0,0.5,0],[0,0.75,0],[1,0.25,0],[1,0.5,0],[1,0.75,0]];outlineConnect=0;fontColor=#232F3E;fillColor=#7AA116;strokeColor=#ffffff;dashed=0;verticalLabelPosition=bottom;verticalAlign=top;align=center;html=1;fontSize=12;fontStyle=0;aspect=fixed;shape=mxgraph.aws4.resourceIcon;resIcon=mxgraph.aws4.s3;" vertex="1" parent="1">
          <mxGeometry x="180" y="200" width="78" height="78" as="geometry" />
        </mxCell>
        <mxCell id="RkTa9d2Z5_lZobXTlZD3-5" value="s3 extended sqs" style="text;html=1;align=center;verticalAlign=middle;whiteSpace=wrap;rounded=0;" vertex="1" parent="1">
          <mxGeometry x="180" y="160" width="90" height="30" as="geometry" />
        </mxCell>
        <mxCell id="RkTa9d2Z5_lZobXTlZD3-7" value="poller and process" style="rounded=0;whiteSpace=wrap;html=1;fillColor=#f8cecc;strokeColor=#b85450;" vertex="1" parent="1">
          <mxGeometry x="520" y="36" width="120" height="30" as="geometry" />
        </mxCell>
        <mxCell id="RkTa9d2Z5_lZobXTlZD3-12" style="edgeStyle=orthogonalEdgeStyle;rounded=0;orthogonalLoop=1;jettySize=auto;html=1;entryX=0;entryY=0.5;entryDx=0;entryDy=0;" edge="1" parent="1" source="RkTa9d2Z5_lZobXTlZD3-9" target="RkTa9d2Z5_lZobXTlZD3-11">
          <mxGeometry relative="1" as="geometry" />
        </mxCell>
        <mxCell id="RkTa9d2Z5_lZobXTlZD3-9" value="" style="outlineConnect=0;dashed=0;verticalLabelPosition=bottom;verticalAlign=top;align=center;html=1;shape=mxgraph.aws3.lambda_function;fillColor=#F58534;gradientColor=none;" vertex="1" parent="1">
          <mxGeometry x="340" y="120" width="40" height="40" as="geometry" />
        </mxCell>
        <mxCell id="RkTa9d2Z5_lZobXTlZD3-11" value="process api" style="rounded=0;whiteSpace=wrap;html=1;fillColor=#d5e8d4;strokeColor=#82b366;" vertex="1" parent="1">
          <mxGeometry x="520" y="125" width="120" height="30" as="geometry" />
        </mxCell>
        <mxCell id="RkTa9d2Z5_lZobXTlZD3-13" value="&lt;b&gt;event source mapping&lt;/b&gt;" style="text;html=1;align=center;verticalAlign=middle;whiteSpace=wrap;rounded=0;" vertex="1" parent="1">
          <mxGeometry x="529" y="290" width="121" height="30" as="geometry" />
        </mxCell>
        <mxCell id="RkTa9d2Z5_lZobXTlZD3-14" value="&lt;font style=&quot;color: rgb(0, 0, 0);&quot;&gt;&lt;b&gt;async call&amp;nbsp;&lt;br&gt;&amp;nbsp;destination -1(success)&lt;/b&gt;&lt;/font&gt;&lt;div&gt;&lt;font style=&quot;color: rgb(0, 0, 0);&quot;&gt;&lt;b&gt;destination -2 (failure)&lt;/b&gt;&lt;/font&gt;&lt;/div&gt;" style="text;html=1;align=left;verticalAlign=middle;whiteSpace=wrap;rounded=0;strokeColor=default;" vertex="1" parent="1">
          <mxGeometry x="340" y="-208.5" width="141" height="60" as="geometry" />
        </mxCell>
        <mxCell id="RkTa9d2Z5_lZobXTlZD3-16" value="" style="shape=mxgraph.signs.safety.no;html=1;pointerEvents=1;fillColor=#FF0000;strokeColor=none;verticalLabelPosition=bottom;verticalAlign=top;align=center;" vertex="1" parent="1">
          <mxGeometry x="510" y="20" width="20" height="20" as="geometry" />
        </mxCell>
        <mxCell id="RkTa9d2Z5_lZobXTlZD3-19" value="NEW" style="dashed=0;html=1;rounded=1;strokeColor=#6554C0;fontSize=12;align=center;fontStyle=1;strokeWidth=2;fontColor=#6554C0" vertex="1" parent="1">
          <mxGeometry x="310" y="-218.5" width="50" height="20" as="geometry" />
        </mxCell>
        <mxCell id="RkTa9d2Z5_lZobXTlZD3-20" value="FIFO" style="text;html=1;align=center;verticalAlign=middle;whiteSpace=wrap;rounded=0;" vertex="1" parent="1">
          <mxGeometry x="187" y="40" width="60" height="30" as="geometry" />
        </mxCell>
        <mxCell id="RkTa9d2Z5_lZobXTlZD3-21" value="grouping id&lt;br&gt;de-duplication ID&lt;br&gt;3000/ms&lt;br&gt;256 KB max" style="text;html=1;align=left;verticalAlign=middle;whiteSpace=wrap;rounded=0;" vertex="1" parent="1">
          <mxGeometry x="162" y="-30" width="110" height="50" as="geometry" />
        </mxCell>
        <mxCell id="RkTa9d2Z5_lZobXTlZD3-23" style="edgeStyle=orthogonalEdgeStyle;rounded=0;orthogonalLoop=1;jettySize=auto;html=1;entryX=0;entryY=0.5;entryDx=0;entryDy=0;" edge="1" parent="1" source="RkTa9d2Z5_lZobXTlZD3-24" target="RkTa9d2Z5_lZobXTlZD3-25">
          <mxGeometry relative="1" as="geometry" />
        </mxCell>
        <mxCell id="RkTa9d2Z5_lZobXTlZD3-24" value="" style="outlineConnect=0;dashed=0;verticalLabelPosition=bottom;verticalAlign=top;align=center;html=1;shape=mxgraph.aws3.lambda_function;fillColor=#F58534;gradientColor=none;" vertex="1" parent="1">
          <mxGeometry x="340" y="180" width="40" height="40" as="geometry" />
        </mxCell>
        <mxCell id="RkTa9d2Z5_lZobXTlZD3-25" value="process api" style="rounded=0;whiteSpace=wrap;html=1;fillColor=#d5e8d4;strokeColor=#82b366;" vertex="1" parent="1">
          <mxGeometry x="520" y="185" width="120" height="30" as="geometry" />
        </mxCell>
        <mxCell id="RkTa9d2Z5_lZobXTlZD3-27" style="edgeStyle=orthogonalEdgeStyle;rounded=0;orthogonalLoop=1;jettySize=auto;html=1;entryX=0;entryY=0.5;entryDx=0;entryDy=0;" edge="1" parent="1" source="RkTa9d2Z5_lZobXTlZD3-28" target="RkTa9d2Z5_lZobXTlZD3-29">
          <mxGeometry relative="1" as="geometry" />
        </mxCell>
        <mxCell id="RkTa9d2Z5_lZobXTlZD3-28" value="" style="outlineConnect=0;dashed=0;verticalLabelPosition=bottom;verticalAlign=top;align=center;html=1;shape=mxgraph.aws3.lambda_function;fillColor=#F58534;gradientColor=none;" vertex="1" parent="1">
          <mxGeometry x="340" y="235" width="40" height="40" as="geometry" />
        </mxCell>
        <mxCell id="RkTa9d2Z5_lZobXTlZD3-29" value="process api" style="rounded=0;whiteSpace=wrap;html=1;fillColor=#d5e8d4;strokeColor=#82b366;" vertex="1" parent="1">
          <mxGeometry x="520" y="240" width="120" height="30" as="geometry" />
        </mxCell>
        <mxCell id="RkTa9d2Z5_lZobXTlZD3-30" value="" style="shape=image;html=1;verticalAlign=top;verticalLabelPosition=bottom;labelBackgroundColor=#ffffff;imageAspect=0;aspect=fixed;image=https://cdn4.iconfinder.com/data/icons/ionicons/512/icon-more-128.png" vertex="1" parent="1">
          <mxGeometry x="420" y="275" width="60" height="60" as="geometry" />
        </mxCell>
        <mxCell id="RkTa9d2Z5_lZobXTlZD3-32" value="" style="sketch=0;points=[[0,0,0],[0.25,0,0],[0.5,0,0],[0.75,0,0],[1,0,0],[0,1,0],[0.25,1,0],[0.5,1,0],[0.75,1,0],[1,1,0],[0,0.25,0],[0,0.5,0],[0,0.75,0],[1,0.25,0],[1,0.5,0],[1,0.75,0]];outlineConnect=0;fontColor=#232F3E;fillColor=#E7157B;strokeColor=#ffffff;dashed=0;verticalLabelPosition=bottom;verticalAlign=top;align=center;html=1;fontSize=12;fontStyle=0;aspect=fixed;shape=mxgraph.aws4.resourceIcon;resIcon=mxgraph.aws4.sqs;" vertex="1" parent="1">
          <mxGeometry x="70" y="218" width="60" height="60" as="geometry" />
        </mxCell>
        <mxCell id="RkTa9d2Z5_lZobXTlZD3-33" style="edgeStyle=orthogonalEdgeStyle;rounded=0;orthogonalLoop=1;jettySize=auto;html=1;entryX=0.5;entryY=0;entryDx=0;entryDy=0;entryPerimeter=0;" edge="1" parent="1" source="RkTa9d2Z5_lZobXTlZD3-6" target="RkTa9d2Z5_lZobXTlZD3-32">
          <mxGeometry relative="1" as="geometry" />
        </mxCell>
        <mxCell id="RkTa9d2Z5_lZobXTlZD3-34" value="DLQ (after 2 retry)" style="text;html=1;align=center;verticalAlign=middle;whiteSpace=wrap;rounded=0;" vertex="1" parent="1">
          <mxGeometry x="44" y="280" width="110" height="30" as="geometry" />
        </mxCell>
        <mxCell id="RkTa9d2Z5_lZobXTlZD3-35" value="&lt;b&gt;use http over https&lt;br&gt;allow traffic from sg of lamda to sg of pods&lt;/b&gt;" style="text;html=1;align=left;verticalAlign=middle;whiteSpace=wrap;rounded=0;strokeColor=default;" vertex="1" parent="1">
          <mxGeometry x="340" y="-118.5" width="270" height="56" as="geometry" />
        </mxCell>
        <mxCell id="RkTa9d2Z5_lZobXTlZD3-36" value="NEW" style="dashed=0;html=1;rounded=1;strokeColor=#6554C0;fontSize=12;align=center;fontStyle=1;strokeWidth=2;fontColor=#6554C0" vertex="1" parent="1">
          <mxGeometry x="310" y="-128.5" width="50" height="20" as="geometry" />
        </mxCell>
        <mxCell id="RkTa9d2Z5_lZobXTlZD3-37" value="http/s" style="text;html=1;align=center;verticalAlign=middle;whiteSpace=wrap;rounded=0;fillColor=#e3c800;fontColor=#000000;strokeColor=#B09500;" vertex="1" parent="1">
          <mxGeometry x="410" y="120" width="60" height="16" as="geometry" />
        </mxCell>
        <mxCell id="RkTa9d2Z5_lZobXTlZD3-38" value="&lt;b&gt;VPC-1&lt;/b&gt;" style="text;html=1;align=center;verticalAlign=middle;whiteSpace=wrap;rounded=0;fillColor=#e3c800;fontColor=#000000;strokeColor=#B09500;" vertex="1" parent="1">
          <mxGeometry x="320" y="300" width="60" height="30" as="geometry" />
        </mxCell>
        <mxCell id="RkTa9d2Z5_lZobXTlZD3-39" value="" style="sketch=0;points=[[0,0,0],[0.25,0,0],[0.5,0,0],[0.75,0,0],[1,0,0],[0,1,0],[0.25,1,0],[0.5,1,0],[0.75,1,0],[1,1,0],[0,0.25,0],[0,0.5,0],[0,0.75,0],[1,0.25,0],[1,0.5,0],[1,0.75,0]];outlineConnect=0;fontColor=#232F3E;fillColor=#ED7100;strokeColor=#ffffff;dashed=0;verticalLabelPosition=bottom;verticalAlign=top;align=center;html=1;fontSize=12;fontStyle=0;aspect=fixed;shape=mxgraph.aws4.resourceIcon;resIcon=mxgraph.aws4.ecs;" vertex="1" parent="1">
          <mxGeometry x="480" y="-40" width="40" height="40" as="geometry" />
        </mxCell>
        <mxCell id="RkTa9d2Z5_lZobXTlZD3-46" style="edgeStyle=orthogonalEdgeStyle;rounded=0;orthogonalLoop=1;jettySize=auto;html=1;exitX=0.5;exitY=1;exitDx=0;exitDy=0;entryX=0;entryY=0.25;entryDx=0;entryDy=0;" edge="1" parent="1" source="RkTa9d2Z5_lZobXTlZD3-40" target="RkTa9d2Z5_lZobXTlZD3-45">
          <mxGeometry relative="1" as="geometry" />
        </mxCell>
        <mxCell id="RkTa9d2Z5_lZobXTlZD3-40" value="ECS" style="fillColor=none;strokeColor=#5A6C86;dashed=1;verticalAlign=top;fontStyle=0;fontColor=#5A6C86;whiteSpace=wrap;html=1;" vertex="1" parent="1">
          <mxGeometry x="480" y="-40" width="180" height="370" as="geometry" />
        </mxCell>
        <mxCell id="RkTa9d2Z5_lZobXTlZD3-48" style="edgeStyle=orthogonalEdgeStyle;rounded=0;orthogonalLoop=1;jettySize=auto;html=1;entryX=0;entryY=0.5;entryDx=0;entryDy=0;" edge="1" parent="1" source="RkTa9d2Z5_lZobXTlZD3-42" target="RkTa9d2Z5_lZobXTlZD3-44">
          <mxGeometry relative="1" as="geometry" />
        </mxCell>
        <mxCell id="RkTa9d2Z5_lZobXTlZD3-42" value="" style="sketch=0;outlineConnect=0;fontColor=#232F3E;gradientColor=none;fillColor=#E7157B;strokeColor=none;dashed=0;verticalLabelPosition=bottom;verticalAlign=top;align=center;html=1;fontSize=12;fontStyle=0;aspect=fixed;pointerEvents=1;shape=mxgraph.aws4.eventbridge_custom_event_bus_resource;" vertex="1" parent="1">
          <mxGeometry x="710" y="110.5" width="78" height="69" as="geometry" />
        </mxCell>
        <mxCell id="RkTa9d2Z5_lZobXTlZD3-44" value="generate-api" style="rounded=0;whiteSpace=wrap;html=1;" vertex="1" parent="1">
          <mxGeometry x="840" y="132.5" width="120" height="25" as="geometry" />
        </mxCell>
        <mxCell id="RkTa9d2Z5_lZobXTlZD3-47" style="edgeStyle=orthogonalEdgeStyle;rounded=0;orthogonalLoop=1;jettySize=auto;html=1;" edge="1" parent="1" source="RkTa9d2Z5_lZobXTlZD3-45">
          <mxGeometry relative="1" as="geometry">
            <mxPoint x="740" y="190" as="targetPoint" />
          </mxGeometry>
        </mxCell>
        <mxCell id="RkTa9d2Z5_lZobXTlZD3-45" value="&lt;font style=&quot;color: rgb(51, 51, 255);&quot;&gt;bucket complete&lt;/font&gt;" style="rounded=0;whiteSpace=wrap;html=1;" vertex="1" parent="1">
          <mxGeometry x="710" y="350" width="60" height="30" as="geometry" />
        </mxCell>
        <mxCell id="RkTa9d2Z5_lZobXTlZD3-49" value="generate-api" style="rounded=0;whiteSpace=wrap;html=1;" vertex="1" parent="1">
          <mxGeometry x="840" y="165" width="120" height="25" as="geometry" />
        </mxCell>
        <mxCell id="RkTa9d2Z5_lZobXTlZD3-50" value="generate-api" style="rounded=0;whiteSpace=wrap;html=1;" vertex="1" parent="1">
          <mxGeometry x="840" y="197.5" width="120" height="25" as="geometry" />
        </mxCell>
        <mxCell id="RkTa9d2Z5_lZobXTlZD3-51" value="" style="shape=image;html=1;verticalAlign=top;verticalLabelPosition=bottom;labelBackgroundColor=#ffffff;imageAspect=0;aspect=fixed;image=https://cdn4.iconfinder.com/data/icons/ionicons/512/icon-more-128.png" vertex="1" parent="1">
          <mxGeometry x="870" y="218" width="60" height="60" as="geometry" />
        </mxCell>
        <mxCell id="RkTa9d2Z5_lZobXTlZD3-53" value="" style="sketch=0;outlineConnect=0;fontColor=#232F3E;gradientColor=none;fillColor=#E7157B;strokeColor=none;dashed=0;verticalLabelPosition=bottom;verticalAlign=top;align=center;html=1;fontSize=12;fontStyle=0;aspect=fixed;pointerEvents=1;shape=mxgraph.aws4.eventbridge_custom_event_bus_resource;" vertex="1" parent="1">
          <mxGeometry x="863.5" y="-10" width="78" height="69" as="geometry" />
        </mxCell>
        <mxCell id="RkTa9d2Z5_lZobXTlZD3-55" value="&lt;font style=&quot;color: rgb(255, 0, 255);&quot;&gt;event-1: generate active outbound&lt;/font&gt;" style="text;html=1;align=left;verticalAlign=middle;whiteSpace=wrap;rounded=0;" vertex="1" parent="1">
          <mxGeometry x="680" y="248" width="65" height="52" as="geometry" />
        </mxCell>
        <mxCell id="RkTa9d2Z5_lZobXTlZD3-56" value="&lt;font style=&quot;color: rgb(255, 0, 255);&quot;&gt;event-2: outbound&lt;br&gt;staged&lt;/font&gt;" style="text;html=1;align=left;verticalAlign=middle;whiteSpace=wrap;rounded=0;" vertex="1" parent="1">
          <mxGeometry x="941.5" y="50" width="65" height="52" as="geometry" />
        </mxCell>
        <mxCell id="RkTa9d2Z5_lZobXTlZD3-57" value="" style="sketch=0;points=[[0,0,0],[0.25,0,0],[0.5,0,0],[0.75,0,0],[1,0,0],[0,1,0],[0.25,1,0],[0.5,1,0],[0.75,1,0],[1,1,0],[0,0.25,0],[0,0.5,0],[0,0.75,0],[1,0.25,0],[1,0.5,0],[1,0.75,0]];outlineConnect=0;fontColor=#232F3E;fillColor=#7AA116;strokeColor=#ffffff;dashed=0;verticalLabelPosition=bottom;verticalAlign=top;align=center;html=1;fontSize=12;fontStyle=0;aspect=fixed;shape=mxgraph.aws4.resourceIcon;resIcon=mxgraph.aws4.s3;" vertex="1" parent="1">
          <mxGeometry x="1040" y="235" width="55" height="55" as="geometry" />
        </mxCell>
        <mxCell id="RkTa9d2Z5_lZobXTlZD3-60" value="stage bucket" style="text;html=1;align=center;verticalAlign=middle;whiteSpace=wrap;rounded=0;" vertex="1" parent="1">
          <mxGeometry x="1030" y="290" width="90" height="30" as="geometry" />
        </mxCell>
        <mxCell id="RkTa9d2Z5_lZobXTlZD3-68" style="edgeStyle=orthogonalEdgeStyle;rounded=0;orthogonalLoop=1;jettySize=auto;html=1;" edge="1" parent="1" source="RkTa9d2Z5_lZobXTlZD3-61" target="RkTa9d2Z5_lZobXTlZD3-67">
          <mxGeometry relative="1" as="geometry" />
        </mxCell>
        <mxCell id="RkTa9d2Z5_lZobXTlZD3-61" value="" style="fillColor=#EFF0F3;strokeColor=none;dashed=0;verticalAlign=top;fontStyle=0;fontColor=#232F3D;whiteSpace=wrap;html=1;" vertex="1" parent="1">
          <mxGeometry x="1030" y="-10.5" width="135" height="190" as="geometry" />
        </mxCell>
        <mxCell id="RkTa9d2Z5_lZobXTlZD3-62" value="publish-api" style="rounded=0;whiteSpace=wrap;html=1;" vertex="1" parent="1">
          <mxGeometry x="1035" y="12" width="120" height="25" as="geometry" />
        </mxCell>
        <mxCell id="RkTa9d2Z5_lZobXTlZD3-63" value="publish-api" style="rounded=0;whiteSpace=wrap;html=1;" vertex="1" parent="1">
          <mxGeometry x="1035" y="44.5" width="120" height="25" as="geometry" />
        </mxCell>
        <mxCell id="RkTa9d2Z5_lZobXTlZD3-64" value="publish-api" style="rounded=0;whiteSpace=wrap;html=1;" vertex="1" parent="1">
          <mxGeometry x="1035" y="77" width="120" height="25" as="geometry" />
        </mxCell>
        <mxCell id="RkTa9d2Z5_lZobXTlZD3-65" value="" style="shape=image;html=1;verticalAlign=top;verticalLabelPosition=bottom;labelBackgroundColor=#ffffff;imageAspect=0;aspect=fixed;image=https://cdn4.iconfinder.com/data/icons/ionicons/512/icon-more-128.png" vertex="1" parent="1">
          <mxGeometry x="1065" y="97.5" width="60" height="60" as="geometry" />
        </mxCell>
        <mxCell id="RkTa9d2Z5_lZobXTlZD3-66" style="edgeStyle=orthogonalEdgeStyle;rounded=0;orthogonalLoop=1;jettySize=auto;html=1;entryX=-0.007;entryY=0.182;entryDx=0;entryDy=0;entryPerimeter=0;" edge="1" parent="1" source="RkTa9d2Z5_lZobXTlZD3-53" target="RkTa9d2Z5_lZobXTlZD3-61">
          <mxGeometry relative="1" as="geometry" />
        </mxCell>
        <mxCell id="RkTa9d2Z5_lZobXTlZD3-67" value="" style="sketch=0;outlineConnect=0;fontColor=#232F3E;gradientColor=none;fillColor=#E7157B;strokeColor=none;dashed=0;verticalLabelPosition=bottom;verticalAlign=top;align=center;html=1;fontSize=12;fontStyle=0;aspect=fixed;pointerEvents=1;shape=mxgraph.aws4.eventbridge_custom_event_bus_resource;" vertex="1" parent="1">
          <mxGeometry x="1058.5" y="-109" width="78" height="69" as="geometry" />
        </mxCell>
        <mxCell id="RkTa9d2Z5_lZobXTlZD3-69" value="" style="outlineConnect=0;dashed=0;verticalLabelPosition=bottom;verticalAlign=top;align=center;html=1;shape=mxgraph.aws3.lambda_function;fillColor=#F58534;gradientColor=none;" vertex="1" parent="1">
          <mxGeometry x="941.5" y="275" width="40" height="40" as="geometry" />
        </mxCell>
        <mxCell id="RkTa9d2Z5_lZobXTlZD3-70" value="" style="outlineConnect=0;dashed=0;verticalLabelPosition=bottom;verticalAlign=top;align=center;html=1;shape=mxgraph.aws3.lambda_function;fillColor=#F58534;gradientColor=none;" vertex="1" parent="1">
          <mxGeometry x="1136.5" y="155" width="40" height="40" as="geometry" />
        </mxCell>
        <mxCell id="RkTa9d2Z5_lZobXTlZD3-71" value="&lt;font style=&quot;color: rgb(255, 0, 255);&quot;&gt;event-2: outbound&lt;br&gt;published&lt;/font&gt;" style="text;html=1;align=left;verticalAlign=middle;whiteSpace=wrap;rounded=0;" vertex="1" parent="1">
          <mxGeometry x="1125" y="-62.5" width="65" height="52" as="geometry" />
        </mxCell>
        <mxCell id="RkTa9d2Z5_lZobXTlZD3-72" style="edgeStyle=orthogonalEdgeStyle;rounded=0;orthogonalLoop=1;jettySize=auto;html=1;" edge="1" parent="1" source="RkTa9d2Z5_lZobXTlZD3-73" target="RkTa9d2Z5_lZobXTlZD3-78">
          <mxGeometry relative="1" as="geometry" />
        </mxCell>
        <mxCell id="RkTa9d2Z5_lZobXTlZD3-73" value="" style="fillColor=#EFF0F3;strokeColor=none;dashed=0;verticalAlign=top;fontStyle=0;fontColor=#232F3D;whiteSpace=wrap;html=1;" vertex="1" parent="1">
          <mxGeometry x="1275" y="-95" width="135" height="190" as="geometry" />
        </mxCell>
        <mxCell id="RkTa9d2Z5_lZobXTlZD3-74" value="response-api" style="rounded=0;whiteSpace=wrap;html=1;" vertex="1" parent="1">
          <mxGeometry x="1280" y="-72.5" width="120" height="25" as="geometry" />
        </mxCell>
        <mxCell id="RkTa9d2Z5_lZobXTlZD3-75" value="response-api" style="rounded=0;whiteSpace=wrap;html=1;" vertex="1" parent="1">
          <mxGeometry x="1280" y="-40" width="120" height="20" as="geometry" />
        </mxCell>
        <mxCell id="RkTa9d2Z5_lZobXTlZD3-76" value="response-api" style="rounded=0;whiteSpace=wrap;html=1;" vertex="1" parent="1">
          <mxGeometry x="1280" y="-7.5" width="120" height="25" as="geometry" />
        </mxCell>
        <mxCell id="RkTa9d2Z5_lZobXTlZD3-77" value="" style="shape=image;html=1;verticalAlign=top;verticalLabelPosition=bottom;labelBackgroundColor=#ffffff;imageAspect=0;aspect=fixed;image=https://cdn4.iconfinder.com/data/icons/ionicons/512/icon-more-128.png" vertex="1" parent="1">
          <mxGeometry x="1310" y="13" width="60" height="60" as="geometry" />
        </mxCell>
        <mxCell id="RkTa9d2Z5_lZobXTlZD3-78" value="" style="sketch=0;outlineConnect=0;fontColor=#232F3E;gradientColor=none;fillColor=#E7157B;strokeColor=none;dashed=0;verticalLabelPosition=bottom;verticalAlign=top;align=center;html=1;fontSize=12;fontStyle=0;aspect=fixed;pointerEvents=1;shape=mxgraph.aws4.eventbridge_custom_event_bus_resource;" vertex="1" parent="1">
          <mxGeometry x="1303.5" y="-193.5" width="78" height="69" as="geometry" />
        </mxCell>
        <mxCell id="RkTa9d2Z5_lZobXTlZD3-79" value="" style="outlineConnect=0;dashed=0;verticalLabelPosition=bottom;verticalAlign=top;align=center;html=1;shape=mxgraph.aws3.lambda_function;fillColor=#F58534;gradientColor=none;" vertex="1" parent="1">
          <mxGeometry x="1381.5" y="70.5" width="40" height="40" as="geometry" />
        </mxCell>
        <mxCell id="RkTa9d2Z5_lZobXTlZD3-80" value="&lt;font style=&quot;color: rgb(255, 0, 255);&quot;&gt;event-2: outbound&lt;br&gt;published&lt;/font&gt;" style="text;html=1;align=left;verticalAlign=middle;whiteSpace=wrap;rounded=0;" vertex="1" parent="1">
          <mxGeometry x="1370" y="-147" width="65" height="52" as="geometry" />
        </mxCell>
        <mxCell id="RkTa9d2Z5_lZobXTlZD3-81" style="edgeStyle=orthogonalEdgeStyle;rounded=0;orthogonalLoop=1;jettySize=auto;html=1;entryX=0.022;entryY=0.111;entryDx=0;entryDy=0;entryPerimeter=0;" edge="1" parent="1" source="RkTa9d2Z5_lZobXTlZD3-67" target="RkTa9d2Z5_lZobXTlZD3-73">
          <mxGeometry relative="1" as="geometry" />
        </mxCell>
        <mxCell id="RkTa9d2Z5_lZobXTlZD3-82" value="" style="sketch=0;points=[[0,0,0],[0.25,0,0],[0.5,0,0],[0.75,0,0],[1,0,0],[0,1,0],[0.25,1,0],[0.5,1,0],[0.75,1,0],[1,1,0],[0,0.25,0],[0,0.5,0],[0,0.75,0],[1,0.25,0],[1,0.5,0],[1,0.75,0]];outlineConnect=0;fontColor=#232F3E;fillColor=#C925D1;strokeColor=#ffffff;dashed=0;verticalLabelPosition=bottom;verticalAlign=top;align=center;html=1;fontSize=12;fontStyle=0;aspect=fixed;shape=mxgraph.aws4.resourceIcon;resIcon=mxgraph.aws4.aurora;" vertex="1" parent="1">
          <mxGeometry x="1500" y="460" width="60" height="60" as="geometry" />
        </mxCell>
        <mxCell id="RkTa9d2Z5_lZobXTlZD3-87" style="edgeStyle=orthogonalEdgeStyle;rounded=0;orthogonalLoop=1;jettySize=auto;html=1;entryX=0.41;entryY=0.067;entryDx=0;entryDy=0;entryPerimeter=0;" edge="1" parent="1">
          <mxGeometry relative="1" as="geometry">
            <mxPoint x="1092.9" y="180" as="sourcePoint" />
            <mxPoint x="1136.5" y="464.52" as="targetPoint" />
          </mxGeometry>
        </mxCell>
        <mxCell id="RkTa9d2Z5_lZobXTlZD3-88" style="edgeStyle=orthogonalEdgeStyle;rounded=0;orthogonalLoop=1;jettySize=auto;html=1;entryX=0.824;entryY=-0.017;entryDx=0;entryDy=0;entryPerimeter=0;" edge="1" parent="1" source="RkTa9d2Z5_lZobXTlZD3-73" target="RkTa9d2Z5_lZobXTlZD3-83">
          <mxGeometry relative="1" as="geometry">
            <Array as="points">
              <mxPoint x="1342" y="370" />
              <mxPoint x="1342" y="370" />
            </Array>
          </mxGeometry>
        </mxCell>
        <mxCell id="RkTa9d2Z5_lZobXTlZD3-89" value="generating" style="text;html=1;align=center;verticalAlign=middle;whiteSpace=wrap;rounded=0;fillColor=#fad9d5;strokeColor=#ae4132;" vertex="1" parent="1">
          <mxGeometry x="863.5" y="473" width="60" height="30" as="geometry" />
        </mxCell>
        <mxCell id="RkTa9d2Z5_lZobXTlZD3-90" value="staged&lt;br&gt;generation failed" style="text;html=1;align=left;verticalAlign=middle;whiteSpace=wrap;rounded=0;fillColor=#fad9d5;strokeColor=#ae4132;" vertex="1" parent="1">
          <mxGeometry x="926.5" y="473" width="95" height="30" as="geometry" />
        </mxCell>
        <mxCell id="RkTa9d2Z5_lZobXTlZD3-91" value="published&lt;br&gt;publish failed" style="text;html=1;align=left;verticalAlign=middle;whiteSpace=wrap;rounded=0;fillColor=#fad9d5;strokeColor=#ae4132;" vertex="1" parent="1">
          <mxGeometry x="1095" y="475" width="95" height="30" as="geometry" />
        </mxCell>
        <mxCell id="RkTa9d2Z5_lZobXTlZD3-92" style="edgeStyle=orthogonalEdgeStyle;rounded=0;orthogonalLoop=1;jettySize=auto;html=1;entryX=0.468;entryY=0.033;entryDx=0;entryDy=0;entryPerimeter=0;" edge="1" parent="1" source="RkTa9d2Z5_lZobXTlZD3-52" target="RkTa9d2Z5_lZobXTlZD3-83">
          <mxGeometry relative="1" as="geometry" />
        </mxCell>
        <mxCell id="RkTa9d2Z5_lZobXTlZD3-96" style="edgeStyle=orthogonalEdgeStyle;rounded=0;orthogonalLoop=1;jettySize=auto;html=1;" edge="1" parent="1" source="RkTa9d2Z5_lZobXTlZD3-93" target="RkTa9d2Z5_lZobXTlZD3-94">
          <mxGeometry relative="1" as="geometry" />
        </mxCell>
        <mxCell id="RkTa9d2Z5_lZobXTlZD3-93" value="stage request&lt;br&gt;staging failed" style="text;html=1;align=center;verticalAlign=middle;whiteSpace=wrap;rounded=0;fillColor=#fad9d5;strokeColor=#ae4132;" vertex="1" parent="1">
          <mxGeometry x="520" y="473" width="90" height="30" as="geometry" />
        </mxCell>
        <mxCell id="RkTa9d2Z5_lZobXTlZD3-94" value="" style="sketch=0;points=[[0,0,0],[0.25,0,0],[0.5,0,0],[0.75,0,0],[1,0,0],[0,1,0],[0.25,1,0],[0.5,1,0],[0.75,1,0],[1,1,0],[0,0.25,0],[0,0.5,0],[0,0.75,0],[1,0.25,0],[1,0.5,0],[1,0.75,0]];outlineConnect=0;fontColor=#232F3E;fillColor=#E7157B;strokeColor=#ffffff;dashed=0;verticalLabelPosition=bottom;verticalAlign=top;align=center;html=1;fontSize=12;fontStyle=0;aspect=fixed;shape=mxgraph.aws4.resourceIcon;resIcon=mxgraph.aws4.sqs;" vertex="1" parent="1">
          <mxGeometry x="192" y="449" width="78" height="78" as="geometry" />
        </mxCell>
        <mxCell id="RkTa9d2Z5_lZobXTlZD3-95" value="Response Queue" style="text;html=1;align=center;verticalAlign=middle;whiteSpace=wrap;rounded=0;" vertex="1" parent="1">
          <mxGeometry x="187" y="530" width="60" height="30" as="geometry" />
        </mxCell>
        <mxCell id="RkTa9d2Z5_lZobXTlZD3-97" style="edgeStyle=orthogonalEdgeStyle;rounded=0;orthogonalLoop=1;jettySize=auto;html=1;entryX=0.6;entryY=0.067;entryDx=0;entryDy=0;entryPerimeter=0;" edge="1" parent="1" source="RkTa9d2Z5_lZobXTlZD3-40" target="RkTa9d2Z5_lZobXTlZD3-93">
          <mxGeometry relative="1" as="geometry">
            <Array as="points">
              <mxPoint x="570" y="475" />
            </Array>
          </mxGeometry>
        </mxCell>
        <mxCell id="RkTa9d2Z5_lZobXTlZD3-99" value="&lt;b&gt;Database status&lt;/b&gt;" style="text;html=1;align=center;verticalAlign=middle;whiteSpace=wrap;rounded=0;" vertex="1" parent="1">
          <mxGeometry x="800" y="527" width="170" height="30" as="geometry" />
        </mxCell>
        <mxCell id="RkTa9d2Z5_lZobXTlZD3-101" value="" style="endArrow=classic;startArrow=classic;html=1;rounded=0;strokeColor=#999999;" edge="1" parent="1">
          <mxGeometry width="50" height="50" relative="1" as="geometry">
            <mxPoint x="725" y="557" as="sourcePoint" />
            <mxPoint x="1045" y="557" as="targetPoint" />
          </mxGeometry>
        </mxCell>
        <mxCell id="RkTa9d2Z5_lZobXTlZD3-102" value="sequentially process event&lt;br&gt;with FIFO queue" style="text;html=1;align=center;verticalAlign=middle;whiteSpace=wrap;rounded=0;fillColor=#e6d0de;strokeColor=#996185;gradientColor=#d5739d;" vertex="1" parent="1">
          <mxGeometry x="1125" y="-208.5" width="153.5" height="30" as="geometry" />
        </mxCell>
        <mxCell id="RkTa9d2Z5_lZobXTlZD3-103" value="" style="sketch=0;points=[[0,0,0],[0.25,0,0],[0.5,0,0],[0.75,0,0],[1,0,0],[0,1,0],[0.25,1,0],[0.5,1,0],[0.75,1,0],[1,1,0],[0,0.25,0],[0,0.5,0],[0,0.75,0],[1,0.25,0],[1,0.5,0],[1,0.75,0]];outlineConnect=0;fontColor=#232F3E;fillColor=#E7157B;strokeColor=#ffffff;dashed=0;verticalLabelPosition=bottom;verticalAlign=top;align=center;html=1;fontSize=12;fontStyle=0;aspect=fixed;shape=mxgraph.aws4.resourceIcon;resIcon=mxgraph.aws4.sqs;" vertex="1" parent="1">
          <mxGeometry x="1179.75" y="-173" width="48.5" height="48.5" as="geometry" />
        </mxCell>
        <mxCell id="RkTa9d2Z5_lZobXTlZD3-104" value="&lt;font style=&quot;color: rgb(51, 51, 255);&quot;&gt;checking DB status&lt;br&gt;prepare Series resonse&lt;/font&gt;&lt;div&gt;&lt;font style=&quot;color: rgb(51, 51, 255);&quot;&gt;publish to sqs&lt;/font&gt;&lt;/div&gt;" style="text;html=1;align=left;verticalAlign=middle;whiteSpace=wrap;rounded=0;" vertex="1" parent="1">
          <mxGeometry x="1360" y="290" width="150" height="30" as="geometry" />
        </mxCell>
      </root>
    </mxGraphModel>
  </diagram>
</mxfile>
